PathFileType	4	(X/Y/Z)	Patient4_TMGait_0pt6_02_right_35.trc.trc
DataRate	CameraRate	NumFrames	NumMarkers	Units	OrigDataRate	OrigDataStartFrame	OrigNumFrames
83.832335329342	83.832335329342	4	33	mm	83.832335329342	106	       141
Frame#	Time	Sacral			L.Shoulder			Chest			R.Shoulder			Neck			R.ASIS			L.ASIS			R.Thigh.Superior			R.Thigh.Lateral			R.Thigh.Inferior			R.Patella			L.Thigh.Superior			L.Thigh.Lateral			L.Thigh.Inferior			L.Patella			L.Shank.Superior			L.Shank.Lateral			L.Shank.Inferior			R.Shank.Superior			R.Shank.Lateral			R.Shank.Inferior			R.Heel			R.Midfoot.Superior			R.Midfoot.Lateral			R.Toe			L.Heel			L.Midfoot.Lateral			L.Midfoot.Superior			L.Toe			L.Elbow			L.Wrist			R.Elbow			R.Wrist			
		X1	Y1	Z1	X2	Y2	Z2	X3	Y3	Z3	X4	Y4	Z4	X5	Y5	Z5	X6	Y6	Z6	X7	Y7	Z7	X8	Y8	Z8	X9	Y9	Z9	X10	Y10	Z10	X11	Y11	Z11	X12	Y12	Z12	X13	Y13	Z13	X14	Y14	Z14	X15	Y15	Z15	X16	Y16	Z16	X17	Y17	Z17	X18	Y18	Z18	X19	Y19	Z19	X20	Y20	Z20	X21	Y21	Z21	X22	Y22	Z22	X23	Y23	Z23	X24	Y24	Z24	X25	Y25	Z25	X26	Y26	Z26	X27	Y27	Z27	X28	Y28	Z28	X29	Y29	Z29	X30	Y30	Z30	X31	Y31	Z31	X32	Y32	Z32	X33	Y33	Z33	

106	43.382500000000	815.276707109779	1017.685893070874	424.352358114663	1030.840276561310	1435.935633298730	244.311635834731	1122.611517806066	1356.545996197074	407.088301598844	1040.220203995637	1438.252327569970	577.227335392248	1028.256294052546	1495.924458571732	395.339513812598	1038.792895733310	951.145039245677	546.147656316062	1030.129783005491	959.809070322562	271.851319321280	1134.652387698923	802.411004190559	510.063655089531	1117.486733003907	680.298415784176	587.589917767947	1205.292435937070	650.817931134384	501.266011485773	1242.447269852065	541.774735147000	523.135364562978	1069.271021987064	748.363276555276	303.877836174971	976.171841690370	637.020686332064	246.090598277138	1055.051019137276	556.128364575517	312.335300314340	1050.751235988245	486.366412644194	323.306329134747	1022.714982849411	416.286949080619	314.960352281388	930.039024261225	303.742160119800	265.829930988324	977.404122460463	192.303198366632	338.543390220193	1179.480671279498	457.385799140332	536.500953089368	1072.147338328573	398.318729507050	606.267092222302	1072.706288653732	287.933726947402	559.100082691257	884.325244620155	193.106303179882	546.716280713570	1061.559758855001	160.846634189333	572.794318173170	957.205447598654	145.084081006890	616.566036720339	1145.742424031136	62.207207889125	597.714607149286	846.756763710095	38.973007514432	387.049102465513	917.154080517042	35.472432164593	303.105836858689	1001.466278975038	96.184834969949	326.584825322831	1128.922797688839	43.071370435856	291.988561970958	1032.159901770284	1094.177656139192	100.373443931314	1212.982622249488	903.551561223382	98.214935651236	963.676884823455	1095.828358510395	694.397924870520	1000.851464325541	834.971981388993	696.313104516128	
107	43.394428571429	814.894667335607	1017.616946482861	423.669195028368	1031.987721909873	1435.841477133843	244.374733584764	1122.697753355262	1356.324948072854	407.664790566624	1039.506488070168	1438.122868308041	577.376150601087	1028.640755052569	1495.803225281886	395.333501313790	1038.097119186602	951.302577773516	546.476709869653	1030.290857375001	959.662720479046	272.111371527439	1134.631245414739	803.713216718071	510.651548155058	1118.169887551484	681.439515383244	588.435791674781	1206.065114973472	652.405313339621	502.227884103901	1244.638270477658	545.108243336431	524.142820834578	1067.657302115178	747.415670194485	304.559129289723	973.577354896705	636.836333884051	246.041645744787	1051.163557999423	555.181886042922	312.630518426523	1046.131264848860	485.537262192865	323.609987676217	1017.821314686202	415.669513208409	315.154458455733	924.644116431289	303.660384848651	265.805127964558	970.901858138644	191.974539126041	338.704018560876	1185.309177499214	459.132147367806	537.401226424441	1081.804934914641	394.712805112399	607.953476808174	1087.346754513907	284.657085982751	560.374333207823	903.840210248626	181.003937072185	549.331102737821	1082.557249664727	156.951750248297	573.723142921715	979.553974137745	136.145324926920	618.400307793201	1171.531147857734	62.149118825384	597.440565251430	839.574135794839	39.016223304429	386.996721455201	909.966618726416	35.465019424843	303.095668283010	994.344138134588	96.125212355400	326.643175831224	1121.776466929296	42.852943997613	292.006694335495	1037.404245761378	1095.497506089646	98.430707005418	1228.477999412167	915.286802858588	97.577267777074	956.191934244306	1097.618491813624	694.545183817720	979.152916886442	835.151604753035	699.298731583547	
108	43.406357142857	814.640141466380	1017.526657344000	423.198782124638	1033.130085840707	1435.607384300738	244.489430464710	1122.902684462433	1356.013755474931	408.241995523184	1039.057360276906	1438.015438543910	577.534779060538	1029.180457500611	1495.606721097983	395.338263390079	1037.526688452908	951.294076786374	546.871822723464	1030.494596459118	959.534422554347	272.413540593313	1134.319893996337	804.408761291117	511.384058335849	1118.059823590667	681.934669503582	589.396189016180	1206.110298078558	653.169268575950	503.473759390258	1245.842888060779	547.764747143901	525.342096737635	1066.045647008064	746.450647500873	305.208898956515	970.829505975436	636.671355877484	246.046157543175	1047.103458786418	554.227526354284	312.899933026101	1041.334291261246	484.741262855156	323.891633328424	1012.782887798770	415.099193123211	315.332068800745	919.123685245701	303.591169696033	265.790496326285	964.349468950806	191.674651707063	338.856234684720	1190.335188038560	460.429295960839	538.450014344598	1091.143330578780	390.633533601699	609.794983863250	1101.930902410468	281.200328610892	561.727339158996	924.141427847447	168.532154070752	551.903063754366	1103.926848510684	153.188406666498	574.744752823012	1002.569748185667	127.117464650690	620.162923940701	1197.631945800642	62.626037743216	597.153394607438	832.409004766608	39.064133846137	386.946487073207	902.779563295723	35.459296754991	303.089571107625	987.219666674331	96.069413747466	326.694973689586	1114.622061363426	42.648224391622	292.022385505000	1042.510154534021	1096.652768152284	96.774512931447	1243.109335725425	927.391081102253	97.429178863996	948.526837216011	1099.867618906485	694.907899789810	958.836211115173	836.790254327312	701.890669910576	
109	43.418285714286	814.536054101731	1017.420272652029	422.948875863333	1034.247847046207	1435.250987363173	244.658156424786	1123.226778151827	1355.624041018847	408.810306953414	1038.885375400878	1437.932727839548	577.703169507722	1029.864524240318	1495.343256822866	395.362931186439	1037.113220393815	951.133329015222	547.339138671421	1030.741720100352	959.417280239773	272.755640873131	1133.720350607188	804.467463893123	512.260821794150	1117.145851102141	681.759963952680	590.455925790467	1205.411019082622	653.086858020035	504.963714154631	1246.049252956840	549.705528567679	526.675440873495	1064.423399521518	745.462770215607	305.827365966561	967.924992693924	636.529828355643	246.110281724656	1042.874329524830	553.272259692998	313.149494527472	1036.365787073091	483.984425432066	324.155104938420	1007.601415206627	414.580626527033	315.497344668921	913.473709245986	303.541227631987	265.792600105625	957.755276120960	191.406646867893	339.000566934108	1194.505052714131	461.273393708464	539.627973865597	1100.070304501607	386.163386448346	611.748418428990	1116.327727242814	277.659461884323	563.128359202088	945.105922229272	155.873535121700	554.344256737282	1125.489679201326	149.705409915121	575.868456978595	1026.067105703230	118.187873982941	621.809317311729	1223.792298176701	63.781878354703	596.910157827198	825.254907480793	39.119315881029	386.899462191096	895.592126758778	35.457440375065	303.087718655166	980.091380145808	96.017872860893	326.740000679094	1107.457890793985	42.460648272526	292.036027745783	1047.493934334869	1097.634768092716	95.436222806572	1256.823900931064	939.750015495919	97.761215314997	940.723130261364	1102.606449822435	695.484266863883	939.960391751674	839.629973048679	704.156130692950	
